<svg width="60" height="60" viewBox="0 0 60 60" fill="none" xmlns="http://www.w3.org/2000/svg">
<path d="M0.5 27.5C0.5 26.3954 1.39543 25.5 2.5 25.5H57.5C58.6046 25.5 59.5 26.3954 59.5 27.5V57.5C59.5 58.6046 58.6046 59.5 57.5 59.5H2.5C1.39543 59.5 0.5 58.6046 0.5 57.5V27.5Z" stroke="#333333"/>
<path d="M4.75 33.5C6.82107 33.5 8.5 31.821 8.5 29.75C8.5 29.6119 8.61193 29.5 8.75 29.5L51.25 29.5C51.3881 29.5 51.5 29.6119 51.5 29.75C51.5 31.8211 53.1789 33.5 55.25 33.5C55.3881 33.5 55.5 33.6119 55.5 33.75V51.25C55.5 51.3881 55.3881 51.5 55.25 51.5C53.1789 51.5 51.5 53.1789 51.5 55.25C51.5 55.3881 51.3881 55.5 51.25 55.5H8.75C8.61193 55.5 8.5 55.3881 8.5 55.25C8.5 53.1789 6.82107 51.5 4.75 51.5C4.61193 51.5 4.5 51.388 4.5 51.25V33.75C4.5 33.6119 4.61193 33.5 4.75 33.5Z" stroke="#333333"/>
<path d="M38 44.5C38 47.8137 35.3137 50.5 32 50.5C28.6863 50.5 26 47.8137 26 44.5C26 41.1863 28.6863 38.5 32 38.5C35.3137 38.5 38 41.1863 38 44.5Z" fill="#99D5D0"/>
<path d="M36 42.5C36 45.8137 33.3137 48.5 30 48.5C26.6863 48.5 24 45.8137 24 42.5C24 39.1863 26.6863 36.5 30 36.5C33.3137 36.5 36 39.1863 36 42.5Z" stroke="#333333"/>
<rect x="12" y="18" width="6" height="5" stroke="#333333" stroke-linejoin="round"/>
<rect x="22" y="15" width="6" height="8" stroke="#333333" stroke-linejoin="round"/>
<rect x="32" y="12" width="6" height="11" stroke="#333333" stroke-linejoin="round"/>
<path d="M41.0118 10C40.5976 10 40.363 9.52528 40.6146 9.19627L46.1028 2.01939C46.3029 1.75769 46.6971 1.75769 46.8972 2.01939L52.3854 9.19628C52.637 9.52528 52.4024 10 51.9882 10H50C49.7239 10 49.5 10.2239 49.5 10.5V23.5C49.5 23.7761 49.2761 24 49 24H44C43.7239 24 43.5 23.7761 43.5 23.5V10.5C43.5 10.2239 43.2761 10 43 10H41.0118Z" fill="#99D5D0"/>
<path d="M38.5 9L45 0.5L51.5 9H48V23H42V9H38.5Z" stroke="#333333" stroke-linejoin="round"/>
</svg>
