<svg width="60" height="60" viewBox="0 0 60 60" fill="none" xmlns="http://www.w3.org/2000/svg">
<path d="M43 34L41.5 31L43.5 30.5L46.5 31L44.5 34L47.5 43.5L44 47L41 43.5L43 34Z" fill="#99D5D0"/>
<path d="M22.5 32C22.5 35.3137 25.1863 38 28.5 38C29.0179 38 29.5206 37.9344 30 37.811V26.189C29.5206 26.0656 29.0179 26 28.5 26C25.1863 26 22.5 28.6863 22.5 32Z" fill="#99D5D0"/>
<path fill-rule="evenodd" clip-rule="evenodd" d="M42.5001 30.6C47.3602 30.6 51.3001 26.6601 51.3001 21.8C51.3001 16.9399 47.3602 13 42.5001 13C37.64 13 33.7001 16.9399 33.7001 21.8C33.7001 26.6601 37.64 30.6 42.5001 30.6Z" stroke="#333333"/>
<path d="M58.8971 45.002C57.9995 36.4255 51.3231 30.6001 42.5001 30.6001C37.3695 30.6001 32.9648 32.5699 30.0001 35.9049V47H57.0001C58.1046 47 59.0121 46.1006 58.8971 45.002Z" stroke="#333333" stroke-linecap="round"/>
<path d="M39.2001 30.6001L41.6751 33.9001H43.3251L45.8001 30.6001" stroke="#333333"/>
<path d="M39.2001 43.4599L41.8401 33.8999H43.1601L45.8001 43.4599L42.5001 47L39.2001 43.4599Z" stroke="#333333" stroke-linejoin="round"/>
<path d="M30 0.5V59.5" stroke="#333333" stroke-linecap="round"/>
<path d="M30 13H3C1.89543 13 1 13.8954 1 15V45C1 46.1046 1.89543 47 3 47H30M30 17H9.25C9.11193 17 9 17.1119 9 17.25C9 19.321 7.32107 21 5.25 21C5.11193 21 5 21.1119 5 21.25V38.75C5 38.888 5.11193 39 5.25 39C7.32107 39 9 40.6789 9 42.75C9 42.8881 9.11193 43 9.25 43H30" stroke="#333333"/>
<path d="M22.5 30C22.5 33.3137 25.1863 36 28.5 36C29.0179 36 29.5206 35.9344 30 35.811V24.189C29.5206 24.0656 29.0179 24 28.5 24C25.1863 24 22.5 26.6863 22.5 30Z" stroke="#333333"/>
</svg>
